<?xml version="1.0" encoding="UTF-8"?>
<svg id="Livello_1" data-name="Livello 1" xmlns="http://www.w3.org/2000/svg" viewBox="0 0 754.26 141.19">
  <defs>
    <style>
      .cls-1 {
        fill: #f4f4f4;
      }

      .cls-1, .cls-2 {
        stroke-width: 0px;
      }

      .cls-2 {
        fill: #7dc7b9;
      }
    </style>
  </defs>
  <g>
    <path class="cls-1" d="M425.38,30.9c-.93-5.33-1.64-10.66-2.29-16.01-.25-1.76-1.18-3.42-2.59-4.44-1.17-.86-2.61-1.27-4.02-1.14-1.6.15-4.82.43-6.43.57-8.03.69-16.07,1.22-24.12,1.65-.13.01-.45.02-.57.03-1.37.17-2.55,1.25-2.76,2.61-.05.27-.03.54-.02.81.24,7.02.45,14.1.52,21.12-.02,1.57-.25,3.14-.72,4.64-1.86,6.07-7.58,10.66-13.92,11.07-.49.03-1.43.07-1.75.06-6.68,0-14.47-.08-21.15-.22-1.69,0-2.99,1.45-2.93,3.14-.24,6.35-.56,12.8-.94,19.14-.27,4.23-.57,8.57-.9,12.81-.04,1.33.47,2.67,1.37,3.7.83.97,2.04,1.7,3.3,1.97.15.03.37.08.52.1,6.72.71,13.4,1.49,20.09,2.59-6.81,1.17-13.61,2.09-20.46,2.8,0,0-.54.02-.54.02h-.27c-.09,0-.18,0-.27,0l-.55-.04c-5.9-.46-10.68-5.39-11.21-11.27-.07-.55-.18-2.05-.24-2.65-.66-7.75-1.18-15.52-1.6-23.29-.09-1.57-.21-4.29-.29-5.82,0-.2-.03-.52-.02-.72-.16-7.88,6.07-14.7,13.91-15.39.68-.06,1.51-.1,2.15-.11,6.36-.18,13.58-.32,19.97-.38.7,0,.9,0,1.45-.2.71-.3,1.27-.98,1.42-1.73,0-.07.04-.14.04-.21,0-.04,0-.07,0-.11v-.06s.01-.03.01-.03h0s0-.07,0-.07c.03-6.91.15-13.89.33-20.8.02-.49.05-.91.08-1.37.71-7.59,7.26-13.7,14.91-13.66,0,0,.34,0,.34,0h.08s.05,0,.05,0h.1s.42.02.42.02c9.15.4,18.33.95,27.47,1.69,0,0,1.66.14,1.66.14l.83.07c3.44.19,6.69,1.66,8.92,4.27,2.37,2.77,3.21,6.18,2.66,9.72-.58,5-1.2,9.99-2.03,14.99h0Z"/>
    <path class="cls-1" d="M405.4,63.2c-7.9,4.07-16.38,9.69-20.66,17.69-1.74,3.26-2.74,6.85-3.24,10.51-.33,2.54-.52,5.13-.6,7.69-.19,5.16.25,10.63.61,15.82.23,2.92.41,6.59.68,9.52.09.86.21,1.81.58,2.44.57.91,1.75,1.51,2.8,1.42,8.1-.27,16.37-.45,24.45-.58,1.39,0,4.81-.07,6.14-.08,0,0,.25,0,.25,0,.07-.01.14-.02.2-.02.09,0,.17-.04.26-.04,1.06-.24,1.83-1.21,1.85-2.3,0-.43,0-1.33,0-1.78,0-5.65,0-14.03.13-19.7.09-2.49.81-4.96,2.05-7.13,2.7-4.77,8.01-7.88,13.51-7.82,7.14.14,14.29.37,21.43.63.66.04,1.3.02,1.94-.24,1.1-.45,1.99-1.39,2.34-2.55.02-.08.04-.15.06-.23l.04-.11c.03-.14.04-.28.07-.42,0-.02,0-.03.01-.08.54-10.53,1.22-21.12,2.1-31.63,0-.04,0-.09,0-.12v-.18s.04-.37.04-.37v-.09s0-.09,0-.09v-.19c-.01-.12-.02-.25-.02-.38l-.05-.37c-.02-.12-.02-.26-.06-.38l-.09-.37-.04-.19c-.02-.06-.04-.12-.06-.18l-.13-.37c-.03-.13-.1-.24-.15-.36l-.16-.36-.2-.34c-.07-.11-.12-.24-.21-.34-1.07-1.62-2.86-2.82-4.8-3.21-.15-.02-.52-.1-.67-.12-3.16-.34-6.32-.7-9.48-1.13,3.15-.47,6.31-.85,9.47-1.22,0,0,.29-.02.29-.02l.58-.03c4.07-.09,7.84,2.3,9.71,5.91,0,0,.14.29.14.29l.27.59c.17.4.29.81.43,1.22.08.38.23.89.28,1.28,1.05,10.1,1.73,20.29,2.39,30.42.01.17.13,2.19.14,2.3.36,7.98-6.13,14.69-14.13,14.83-7.07.34-14.17.61-21.25.83h-.06s-.02,0-.02,0h-.04c-.16.03-.31.06-.47.1-.1.02-.19.08-.29.1-.91.38-1.61,1.27-1.68,2.26.04,4.55.22,12.87.25,17.45,0,1.19.04,3.1.01,4.3-.13,8.53-7.32,15.57-15.85,15.54,0,0-.27,0-.27,0h-2.05c-9.53-.04-19.27-.16-28.8-.39-6.94-.14-13.33-5.44-14.4-12.34-.25-1.46-.3-2.6-.32-3.94.07-5.82.13-11.88.44-17.72.25-4.29.77-8.61,1.66-12.82,1.17-5.85,3.23-11.66,6.94-16.4,6.14-7.96,16.04-12.42,25.69-14.39h0Z"/>
    <path class="cls-2" d="M370.01,80.42c-4.65-13.22-.86-26.15,12.41-32.15,2.16-.95,4.44-1.75,6.74-2.31,6.2-1.56,12.66-1.63,18.55-2.87,1.65-.37,3.28-.85,4.88-1.39,6.61-2.35,12.6-6.15,18.33-10.83,2.89-2.44,7.22-2.04,9.61.89.96,1.17,1.42,2.52,1.53,3.93.09.84.17,1.74.23,2.57.34,4.78.32,9.55-.11,14.32-1.02,10.89-4.04,22.59-12.33,30.38-1.02.93-2.13,1.81-3.28,2.57-11.12,6.64-25.57,8.76-37.87,4.62,7.06-.54,13.85-2.19,20.19-5.03,4.18-1.9,8.01-4.17,11.5-7.02.23-.17.35-.32.53-.5,3.18-3.19,4.92-7.14,6.14-11.61,2.04-7.75,2.25-16.18,1.82-24.21-.1-1.6-.22-3.19-.41-4.78,0,0,11.09,4.39,11.09,4.39-3.85,3.17-8.12,6.12-12.64,8.45-.65.34-1.42.7-2.09,1.03-.41.19-1.7.75-2.14.95-1.89.78-3.98,1.53-5.95,2.08-.41.13-1.11.3-1.53.41-.87.24-2.2.5-3.1.67-6.12,1.17-12.87.67-18.71.87-2.83.1-5.67.44-8.4,1.18-11.19,2.96-14.31,12.78-15,23.36h0Z"/>
  </g>
  <g>
    <path class="cls-1" d="M63.29,101.51h-17l-1.42-31.04-.08-.08-.08.08-7.57,31.04h-10.64l-8.34-31.04-.08-.08-.08.08-1.09,31.04H0l4.33-61.8h17.52l9.67,36.54.12.04.08-.04,9.67-36.54h17.52l4.37,61.8Z"/>
    <path class="cls-1" d="M68.47,39.72h32.9v14.93h-16.15v8.7h13.68v13.92h-13.68v9.31h16.47v14.93h-33.23v-61.8Z"/>
    <path class="cls-1" d="M106.43,39.72h18.82c8.72,0,15.31,2.6,19.79,7.81,4.48,5.21,6.72,12.88,6.72,23.03s-2.23,17.87-6.7,23.11c-4.46,5.23-11.03,7.85-19.69,7.85h-18.94v-61.8ZM125.05,86.18c3.32,0,5.81-1.3,7.49-3.91,1.67-2.6,2.51-6.44,2.51-11.51s-.84-9.06-2.51-11.72c-1.67-2.66-4.17-3.99-7.49-3.99h-1.86v31.12h1.86Z"/>
    <path class="cls-1" d="M156.61,39.72h16.75v61.8h-16.75v-61.8Z"/>
    <path class="cls-1" d="M190.51,99.37c-4.03-2.48-7.08-6.14-9.14-10.99-2.07-4.84-3.1-10.79-3.1-17.83,0-10.58,2.34-18.63,7.02-24.16,4.68-5.53,11.5-8.3,20.46-8.3,1.91,0,3.88.23,5.89.69,2.01.46,3.73,1.09,5.16,1.9v16.27c-1.56-1.08-3.27-1.94-5.1-2.57-1.83-.63-3.71-.95-5.62-.95-3.72,0-6.5,1.42-8.32,4.25-1.82,2.83-2.73,7.12-2.73,12.87s.96,10.08,2.89,12.93c1.93,2.85,4.84,4.27,8.72,4.27,1.84,0,3.75-.38,5.75-1.13,2-.75,3.72-1.65,5.18-2.67l-.41,16.51c-3.18,1.75-7.14,2.63-11.86,2.63-5.83,0-10.76-1.24-14.79-3.72Z"/>
    <path class="cls-1" d="M251.23,90.06h-11.9l-2.18,11.45h-17.44l16.23-61.8h19.47l16.23,61.8h-18.25l-2.14-11.45ZM248.6,76.18l-2.99-15.95-.16-.36-.49.36-3.03,15.95h6.68Z"/>
    <path class="cls-1" d="M275.76,39.72h16.75v46.86h14.04v14.93h-30.8v-61.8Z"/>
  </g>
  <g>
    <path class="cls-2" d="M508.72,99.37c-4.03-2.48-7.08-6.14-9.14-10.99-2.07-4.84-3.1-10.79-3.1-17.83,0-10.58,2.34-18.63,7.02-24.16,4.68-5.53,11.5-8.3,20.46-8.3,1.91,0,3.88.23,5.89.69,2.01.46,3.73,1.09,5.16,1.9v16.27c-1.56-1.08-3.27-1.94-5.1-2.57-1.83-.63-3.71-.95-5.62-.95-3.72,0-6.5,1.42-8.32,4.25-1.82,2.83-2.73,7.12-2.73,12.87s.96,10.08,2.89,12.93c1.93,2.85,4.84,4.27,8.72,4.27,1.84,0,3.75-.38,5.75-1.13,2-.75,3.72-1.65,5.18-2.67l-.41,16.51c-3.18,1.75-7.14,2.63-11.86,2.63-5.83,0-10.76-1.24-14.79-3.72Z"/>
    <path class="cls-2" d="M540.99,39.72h32.9v14.93h-16.15v8.7h13.68v13.92h-13.68v9.31h16.47v14.93h-33.22v-61.8Z"/>
    <path class="cls-2" d="M626.42,39.72v62.32h-15.66l-15.26-29.22.2,28.69h-16.75v-62.2h15.82l14.97,31.4v-31h16.67Z"/>
    <path class="cls-2" d="M642.17,54.65h-11.74v-14.93h39.82v14.93h-11.37v46.86h-16.71v-46.86Z"/>
    <path class="cls-2" d="M674.22,39.72h32.9v14.93h-16.15v8.7h13.68v13.92h-13.68v9.31h16.47v14.93h-33.23v-61.8Z"/>
    <path class="cls-2" d="M737.03,101.51l-5.99-22.26h-2.06v22.26h-16.8v-61.8h20.36c3.97,0,7.4.84,10.3,2.53,2.9,1.69,5.12,4.11,6.66,7.28,1.54,3.17,2.31,6.93,2.31,11.27,0,3.37-.56,6.31-1.68,8.82-1.12,2.51-2.75,4.55-4.88,6.11l9.02,25.78h-17.24ZM728.97,66.75h2.43c1.51,0,2.67-.55,3.48-1.66.81-1.11,1.21-2.67,1.21-4.69s-.4-3.67-1.19-4.78c-.8-1.11-1.94-1.66-3.42-1.66h-2.51v12.79Z"/>
  </g>
</svg>